<svg width="76" height="90" viewBox="0 0 76 90" fill="none" xmlns="http://www.w3.org/2000/svg">
<g filter="url(#filter0_ddddd_2130_526)">
<path d="M65.7159 20.1432H54.6665C54.7894 20.0392 54.9153 19.9384 55.035 19.8282C55.9917 18.9783 56.7626 17.9402 57.2997 16.7787C57.8368 15.6173 58.1285 14.3575 58.1565 13.0782C58.1978 11.6787 57.9527 10.2855 57.4362 8.98408C56.9197 7.68271 56.1426 6.50064 55.1527 5.51044C54.1628 4.52024 52.9809 3.74282 51.6797 3.22589C50.3785 2.70896 48.9854 2.46344 47.5858 2.5044C46.306 2.53196 45.0456 2.82342 43.8836 3.36053C42.7216 3.89764 41.6829 4.66883 40.8327 5.62583C39.6562 6.98935 38.6997 8.52817 37.9979 10.1867C37.296 8.52817 36.3396 6.98935 35.1631 5.62583C34.3128 4.66883 33.2742 3.89764 32.1122 3.36053C30.9502 2.82342 29.6898 2.53196 28.41 2.5044C27.0104 2.46344 25.6173 2.70896 24.316 3.22589C23.0148 3.74282 21.833 4.52024 20.8431 5.51044C19.8532 6.50064 19.0761 7.68271 18.5596 8.98408C18.043 10.2855 17.7979 11.6787 17.8393 13.0782C17.8673 14.3575 18.159 15.6173 18.696 16.7787C19.2331 17.9402 20.0041 18.9783 20.9607 19.8282C21.0804 19.9321 21.2064 20.0329 21.3292 20.1432H10.2798C8.94322 20.1432 7.66137 20.6741 6.71625 21.6192C5.77113 22.5644 5.24017 23.8462 5.24017 25.1828V35.2621C5.24017 36.5987 5.77113 37.8806 6.71625 38.8257C7.66137 39.7708 8.94322 40.3018 10.2798 40.3018V60.4604C10.2798 61.7969 10.8108 63.0788 11.7559 64.0239C12.701 64.969 13.9829 65.5 15.3195 65.5H34.2181C34.5523 65.5 34.8728 65.3673 35.109 65.131C35.3453 64.8947 35.4781 64.5742 35.4781 64.2401V35.2621H10.2798V25.1828H35.4781V35.2621H40.5177V25.1828H65.7159V35.2621H40.5177V64.2401C40.5177 64.5742 40.6504 64.8947 40.8867 65.131C41.123 65.3673 41.4435 65.5 41.7776 65.5H60.6763C62.0129 65.5 63.2947 64.969 64.2399 64.0239C65.185 63.0788 65.7159 61.7969 65.7159 60.4604V40.3018C67.0525 40.3018 68.3344 39.7708 69.2795 38.8257C70.2246 37.8806 70.7556 36.5987 70.7556 35.2621V25.1828C70.7556 23.8462 70.2246 22.5644 69.2795 21.6192C68.3344 20.6741 67.0525 20.1432 65.7159 20.1432ZM24.2995 16.0485C23.8589 15.6495 23.5056 15.1637 23.2616 14.6217C23.0177 14.0796 22.8885 13.493 22.8821 12.8987C22.8662 12.2023 22.9894 11.5097 23.2445 10.8615C23.4997 10.2133 23.8816 9.62258 24.368 9.12389C24.8544 8.62521 25.4354 8.22861 26.077 7.95733C26.7185 7.68604 27.4078 7.54554 28.1044 7.54405H28.2588C28.8531 7.55046 29.4397 7.67968 29.9818 7.92359C30.5238 8.16751 31.0096 8.52086 31.4085 8.96145C34.0512 11.9474 34.9835 16.8989 35.3111 19.9605C32.2369 19.6361 27.2886 18.7037 24.2995 16.0485ZM51.7026 16.0485C48.7134 18.6943 43.7525 19.6266 40.6783 19.9542C41.0532 16.6438 42.0926 11.7962 44.6124 8.9646C45.0114 8.52401 45.4972 8.17066 46.0392 7.92674C46.5812 7.68283 47.1678 7.55361 47.7622 7.54719H47.9165C48.6132 7.55155 49.3019 7.69491 49.9424 7.96886C50.583 8.24282 51.1624 8.64186 51.6467 9.14261C52.131 9.64336 52.5105 10.2357 52.7629 10.885C53.0154 11.5343 53.1357 12.2275 53.1168 12.9239C53.1066 13.5142 52.9752 14.0961 52.7308 14.6336C52.4865 15.1711 52.1344 15.6526 51.6963 16.0485H51.7026Z" fill="#D658B3"/>
<path d="M53.5361 18.8072L49.8891 21.8932H54.6665H65.7159C66.5884 21.8932 67.4251 22.2398 68.0421 22.8567C68.659 23.4736 69.0056 24.3103 69.0056 25.1828V35.2621C69.0056 36.1346 68.659 36.9713 68.0421 37.5882C67.4251 38.2052 66.5884 38.5518 65.7159 38.5518H63.9659V40.3018V60.4604C63.9659 61.3328 63.6194 62.1696 63.0024 62.7865C62.3855 63.4034 61.5488 63.75 60.6763 63.75H42.2677V37.0121H65.7159H67.4659V35.2621V25.1828V23.4328H65.7159H40.5177H38.7677V25.1828V33.5121H37.2281V25.1828V23.4328H35.4781H10.2798H8.52982V25.1828V35.2621V37.0121H10.2798H33.7281V63.75H15.3195C14.447 63.75 13.6103 63.4034 12.9933 62.7865C12.3764 62.1696 12.0298 61.3328 12.0298 60.4604V40.3018V38.5518H10.2798C9.40735 38.5518 8.57062 38.2052 7.95369 37.5882C7.33676 36.9713 6.99017 36.1346 6.99017 35.2621V25.1828C6.99017 24.3103 7.33676 23.4736 7.95369 22.8567C8.57062 22.2398 9.40735 21.8932 10.2798 21.8932H21.3292H25.8993L22.4981 18.8407C22.4134 18.7648 22.2403 18.6186 22.1556 18.547C22.1361 18.5306 22.1213 18.5181 22.1134 18.5113C21.3412 17.8229 20.7187 16.9832 20.2844 16.0442C19.8484 15.1013 19.6116 14.0785 19.5889 13.0399L19.5889 13.0399L19.5885 13.0265C19.5542 11.8653 19.7576 10.7094 20.1861 9.62969C20.6147 8.54997 21.2594 7.56923 22.0807 6.74769C22.902 5.92615 23.8825 5.28113 24.9621 4.85225C26.0417 4.42337 27.1976 4.21967 28.3588 4.25365L28.3588 4.2537L28.3723 4.25399C29.4113 4.27637 30.4346 4.51299 31.3779 4.94905L32.1122 3.36053L31.3779 4.94905C32.3176 5.38337 33.1579 6.00623 33.8466 6.7789C34.9002 8.00209 35.7571 9.38188 36.3862 10.8687L37.9979 14.6772L39.6095 10.8687C40.2387 9.38186 41.0956 8.00205 42.1492 6.77884C42.838 6.0062 43.6782 5.38336 44.6178 4.94905C45.5612 4.51299 46.5845 4.27637 47.6235 4.25404L47.637 4.25365C48.7982 4.21967 49.954 4.42337 51.0336 4.85225C52.1132 5.28113 53.0938 5.92615 53.9151 6.74769C54.7364 7.56923 55.3811 8.54997 55.8096 9.62969C56.2382 10.7094 56.4416 11.8653 56.4072 13.0265L56.4072 13.0265L56.4069 13.0399C56.3976 13.4635 56.3527 13.8845 56.2733 14.2985H54.6916C54.799 13.8623 54.8579 13.4144 54.8664 12.963C54.8904 12.0366 54.7298 11.1147 54.394 10.2509C54.0572 9.38452 53.5508 8.59412 52.9046 7.92598C52.2584 7.25783 51.4853 6.72539 50.6306 6.35985C49.776 5.99432 48.857 5.80304 47.9275 5.79723V5.79719H47.9165H47.7622H47.7528L47.7433 5.7973C46.9078 5.80631 46.0831 5.98797 45.3211 6.33088C44.559 6.67379 43.8761 7.17053 43.3152 7.78994L43.3101 7.79557L43.3051 7.80124C41.8139 9.47701 40.8298 11.6591 40.1714 13.7555C39.5068 15.8717 39.1354 18.0271 38.9395 19.7573L38.694 21.9255L40.8638 21.6943C42.4668 21.5235 44.5917 21.1926 46.7293 20.5456C48.8487 19.9042 51.1035 18.9158 52.8625 17.3589L56.2635 14.3485C56.1474 14.932 55.9624 15.5013 55.7113 16.0442C55.2753 16.9871 54.6494 17.8299 53.8727 18.5199L53.861 18.5303L53.8495 18.541C53.7962 18.59 53.7537 18.6254 53.6858 18.6818C53.6466 18.7144 53.5991 18.754 53.5361 18.8072ZM23.131 17.3512L23.1373 17.3568C24.8959 18.9189 27.1474 19.9103 29.2651 20.5531C31.4006 21.2013 33.5232 21.5315 35.1275 21.7008L37.2816 21.9282L37.0512 19.7743C36.8803 18.1775 36.5494 16.0581 35.9027 13.925C35.2616 11.8099 34.2741 9.5587 32.719 7.80164L32.7124 7.79418L32.7057 7.78678C32.1448 7.16739 31.4619 6.67064 30.6999 6.32773L29.9995 7.88424L30.6999 6.32773C29.9379 5.98482 29.1132 5.80316 28.2776 5.79415L28.2682 5.79405H28.2588L28.1044 5.79404L28.1007 5.79405C27.1712 5.79604 26.2515 5.98352 25.3954 6.34549C24.5394 6.70745 23.7641 7.23664 23.1152 7.90203L24.368 9.12389L23.1152 7.90203C22.4662 8.56743 21.9566 9.35564 21.6162 10.2205C21.277 11.0821 21.1125 12.0026 21.1323 12.9283C21.1428 13.7602 21.3243 14.5811 21.6658 15.3398C22.0087 16.1018 22.5054 16.7847 23.1248 17.3456L23.131 17.3512Z" stroke="white" stroke-width="3.5"/>
</g>
<defs>
<filter id="filter0_ddddd_2130_526" x="-0.00982714" y="0.75" width="76.0154" height="91" filterUnits="userSpaceOnUse" color-interpolation-filters="sRGB">
<feFlood flood-opacity="0" result="BackgroundImageFix"/>
<feColorMatrix in="SourceAlpha" type="matrix" values="0 0 0 0 0 0 0 0 0 0 0 0 0 0 0 0 0 0 127 0" result="hardAlpha"/>
<feOffset/>
<feGaussianBlur stdDeviation="0.875"/>
<feColorMatrix type="matrix" values="0 0 0 0 0 0 0 0 0 0 0 0 0 0 0 0 0 0 0.29 0"/>
<feBlend mode="normal" in2="BackgroundImageFix" result="effect1_dropShadow_2130_526"/>
<feColorMatrix in="SourceAlpha" type="matrix" values="0 0 0 0 0 0 0 0 0 0 0 0 0 0 0 0 0 0 127 0" result="hardAlpha"/>
<feOffset dy="3.5"/>
<feGaussianBlur stdDeviation="1.75"/>
<feColorMatrix type="matrix" values="0 0 0 0 0 0 0 0 0 0 0 0 0 0 0 0 0 0 0.26 0"/>
<feBlend mode="normal" in2="effect1_dropShadow_2130_526" result="effect2_dropShadow_2130_526"/>
<feColorMatrix in="SourceAlpha" type="matrix" values="0 0 0 0 0 0 0 0 0 0 0 0 0 0 0 0 0 0 127 0" result="hardAlpha"/>
<feOffset dy="7"/>
<feGaussianBlur stdDeviation="2.625"/>
<feColorMatrix type="matrix" values="0 0 0 0 0 0 0 0 0 0 0 0 0 0 0 0 0 0 0.15 0"/>
<feBlend mode="normal" in2="effect2_dropShadow_2130_526" result="effect3_dropShadow_2130_526"/>
<feColorMatrix in="SourceAlpha" type="matrix" values="0 0 0 0 0 0 0 0 0 0 0 0 0 0 0 0 0 0 127 0" result="hardAlpha"/>
<feOffset dy="14"/>
<feGaussianBlur stdDeviation="2.625"/>
<feColorMatrix type="matrix" values="0 0 0 0 0 0 0 0 0 0 0 0 0 0 0 0 0 0 0.04 0"/>
<feBlend mode="normal" in2="effect3_dropShadow_2130_526" result="effect4_dropShadow_2130_526"/>
<feColorMatrix in="SourceAlpha" type="matrix" values="0 0 0 0 0 0 0 0 0 0 0 0 0 0 0 0 0 0 127 0" result="hardAlpha"/>
<feOffset dy="21"/>
<feGaussianBlur stdDeviation="2.625"/>
<feColorMatrix type="matrix" values="0 0 0 0 0 0 0 0 0 0 0 0 0 0 0 0 0 0 0.01 0"/>
<feBlend mode="normal" in2="effect4_dropShadow_2130_526" result="effect5_dropShadow_2130_526"/>
<feBlend mode="normal" in="SourceGraphic" in2="effect5_dropShadow_2130_526" result="shape"/>
</filter>
</defs>
</svg>
