<svg width="40" height="40" viewBox="0 0 40 40" fill="none" xmlns="http://www.w3.org/2000/svg">
<g clip-path="url(#clip0_2131_307)">
<g filter="url(#filter0_ddddd_2131_307)">
<path d="M30.9219 17.1897C30.5011 16.75 30.0658 16.2969 29.9018 15.8984C29.75 15.5335 29.7411 14.9286 29.7321 14.3426C29.7154 13.2533 29.6975 12.019 28.8393 11.1607C27.981 10.3025 26.7467 10.2846 25.6574 10.2679C25.0714 10.2589 24.4665 10.25 24.1016 10.0982C23.7042 9.93415 23.25 9.49888 22.8103 9.07812C22.0402 8.33817 21.1652 7.5 20 7.5C18.8348 7.5 17.9609 8.33817 17.1897 9.07812C16.75 9.49888 16.2969 9.93415 15.8984 10.0982C15.5357 10.25 14.9286 10.2589 14.3426 10.2679C13.2533 10.2846 12.019 10.3025 11.1607 11.1607C10.3025 12.019 10.2902 13.2533 10.2679 14.3426C10.2589 14.9286 10.25 15.5335 10.0982 15.8984C9.93415 16.2958 9.49888 16.75 9.07812 17.1897C8.33817 17.9598 7.5 18.8348 7.5 20C7.5 21.1652 8.33817 22.0391 9.07812 22.8103C9.49888 23.25 9.93415 23.7031 10.0982 24.1016C10.25 24.4665 10.2589 25.0714 10.2679 25.6574C10.2846 26.7467 10.3025 27.981 11.1607 28.8393C12.019 29.6975 13.2533 29.7154 14.3426 29.7321C14.9286 29.7411 15.5335 29.75 15.8984 29.9018C16.2958 30.0658 16.75 30.5011 17.1897 30.9219C17.9598 31.6618 18.8348 32.5 20 32.5C21.1652 32.5 22.0391 31.6618 22.8103 30.9219C23.25 30.5011 23.7031 30.0658 24.1016 29.9018C24.4665 29.75 25.0714 29.7411 25.6574 29.7321C26.7467 29.7154 27.981 29.6975 28.8393 28.8393C29.6975 27.981 29.7154 26.7467 29.7321 25.6574C29.7411 25.0714 29.75 24.4665 29.9018 24.1016C30.0658 23.7042 30.5011 23.25 30.9219 22.8103C31.6618 22.0402 32.5 21.1652 32.5 20C32.5 18.8348 31.6618 17.9609 30.9219 17.1897ZM25.096 17.9531L18.846 24.2031C18.7631 24.2861 18.6646 24.352 18.5562 24.3969C18.4478 24.4419 18.3316 24.465 18.2143 24.465C18.097 24.465 17.9808 24.4419 17.8724 24.3969C17.764 24.352 17.6655 24.2861 17.5826 24.2031L14.904 21.5246C14.7365 21.357 14.6424 21.1298 14.6424 20.8929C14.6424 20.6559 14.7365 20.4287 14.904 20.2612C15.0716 20.0936 15.2988 19.9995 15.5357 19.9995C15.7726 19.9995 15.9999 20.0936 16.1674 20.2612L18.2143 22.3092L23.8326 16.6897C23.9155 16.6068 24.014 16.541 24.1224 16.4961C24.2308 16.4512 24.347 16.4281 24.4643 16.4281C24.5816 16.4281 24.6978 16.4512 24.8062 16.4961C24.9145 16.541 25.013 16.6068 25.096 16.6897C25.1789 16.7727 25.2447 16.8712 25.2896 16.9796C25.3345 17.0879 25.3576 17.2041 25.3576 17.3214C25.3576 17.4387 25.3345 17.5549 25.2896 17.6633C25.2447 17.7717 25.1789 17.8702 25.096 17.9531Z" fill="#45B442"/>
<path d="M30.9219 22.8103C31.6618 22.0402 32.5 21.1652 32.5 20C32.5 18.8348 31.6618 17.9609 30.9219 17.1897L30.9122 17.1796C30.4944 16.743 30.0646 16.2938 29.9018 15.8984C29.7503 15.5342 29.7411 14.931 29.7322 14.3461L29.7321 14.3426L29.7321 14.3383C29.7154 13.2501 29.6964 12.0178 28.8393 11.1607C27.9822 10.3036 26.7499 10.2846 25.6617 10.2679L25.6574 10.2679L25.6539 10.2678C25.069 10.2589 24.4658 10.2497 24.1016 10.0982C23.7054 9.93462 23.2526 9.50138 22.8141 9.08175L22.8103 9.07812C22.0402 8.33817 21.1652 7.5 20 7.5C18.8348 7.5 17.9609 8.33817 17.1897 9.07812L17.1796 9.08782C16.743 9.50555 16.2938 9.93541 15.8984 10.0982C15.5365 10.2497 14.9312 10.2589 14.3465 10.2678L14.3426 10.2679L14.3383 10.2679C13.2501 10.2846 12.0178 10.3036 11.1607 11.1607C10.3153 12.0061 10.2907 13.2164 10.2689 14.2935C10.2685 14.3099 10.2682 14.3263 10.2679 14.3426L10.2678 14.3461C10.2589 14.931 10.2497 15.5342 10.0982 15.8984C9.93462 16.2946 9.50139 16.7474 9.08176 17.1859L9.07812 17.1897C8.33817 17.9598 7.5 18.8348 7.5 20C7.5 21.1652 8.33817 22.0391 9.07812 22.8103L9.08781 22.8204C9.50555 23.2569 9.93541 23.7062 10.0982 24.1016L30.9219 22.8103ZM30.9219 22.8103L30.9182 22.8141C30.4986 23.2526 30.0654 23.7054 29.9018 24.1016M30.9219 22.8103L23.8636 29.3239C24.1385 29.21 24.4597 29.1641 24.7451 29.1405C25.0353 29.1165 25.3494 29.1118 25.6336 29.1074L25.6478 29.1072C25.6478 29.1072 25.6478 29.1072 25.6478 29.1072C26.7936 29.0896 27.7481 29.0466 28.3973 28.3973C29.0466 27.7481 29.0896 26.7936 29.1072 25.6478C29.1072 25.6478 29.1072 25.6478 29.1072 25.6478L29.1074 25.6336C29.1118 25.3494 29.1165 25.0353 29.1405 24.7451C29.1641 24.4595 29.21 24.138 29.3241 23.863C29.3243 23.8625 29.3245 23.862 29.3247 23.8616L29.9018 24.1016M29.9018 24.1016C29.7503 24.4658 29.7411 25.069 29.7322 25.6539L29.7321 25.6574L29.9018 24.1016ZM17.1404 24.6448C17.2814 24.7859 17.4488 24.8979 17.633 24.9743C17.8173 25.0507 18.0148 25.09 18.2143 25.09C18.4137 25.09 18.6113 25.0507 18.7955 24.9743C18.9797 24.8979 19.147 24.7861 19.2879 24.6451C19.288 24.645 19.2881 24.6449 19.2882 24.6448L25.5379 18.3951C25.6789 18.2541 25.7908 18.0867 25.8671 17.9025C25.9434 17.7183 25.9826 17.5208 25.9826 17.3214C25.9826 17.122 25.9434 16.9246 25.8671 16.7404C25.7908 16.5562 25.6789 16.3888 25.5379 16.2478C25.3969 16.1068 25.2295 15.995 25.0453 15.9187C24.8611 15.8423 24.6637 15.8031 24.4643 15.8031C24.2649 15.8031 24.0675 15.8423 23.8832 15.9187C23.699 15.995 23.5316 16.1068 23.3906 16.2478L23.3906 16.2478L18.2144 21.4251L16.6095 19.8193L16.6094 19.8192C16.3246 19.5345 15.9384 19.3745 15.5357 19.3745C15.133 19.3745 14.7468 19.5345 14.4621 19.8192C14.1773 20.104 14.0174 20.4902 14.0174 20.8929C14.0174 21.2955 14.1773 21.6817 14.4621 21.9665L17.1404 24.6448ZM17.1404 24.6448L17.5826 24.2031M17.1404 24.6448L17.1406 24.6451L17.5826 24.2031M17.5826 24.2031L14.904 21.5246C14.7365 21.357 14.6424 21.1298 14.6424 20.8929C14.6424 20.6559 14.7365 20.4287 14.904 20.2612C15.0716 20.0936 15.2988 19.9995 15.5357 19.9995C15.7726 19.9995 15.9999 20.0936 16.1674 20.2612L23.8326 16.6897C23.9155 16.6068 24.014 16.541 24.1224 16.4961C24.2308 16.4512 24.347 16.4281 24.4643 16.4281C24.5816 16.4281 24.6978 16.4512 24.8062 16.4961C24.9145 16.541 25.013 16.6068 25.096 16.6897C25.1789 16.7727 25.2447 16.8712 25.2896 16.9796C25.3345 17.0879 25.3576 17.2041 25.3576 17.3214C25.3576 17.4387 25.3345 17.5549 25.2896 17.6633C25.2447 17.7717 25.1789 17.8702 25.096 17.9531L18.846 24.2031C18.7631 24.2861 18.6646 24.352 18.5562 24.3969C18.4478 24.4419 18.3316 24.465 18.2143 24.465C18.097 24.465 17.9808 24.4419 17.8724 24.3969C17.764 24.352 17.6655 24.2861 17.5826 24.2031ZM30.4703 17.6218L30.4709 17.6224L17.1859 30.9182C16.7474 30.4986 16.2946 30.0654 15.8984 29.9018L16.1384 29.3247C16.138 29.3245 16.1375 29.3243 16.137 29.3241C15.862 29.21 15.5405 29.1641 15.2549 29.1405C14.9647 29.1165 14.6506 29.1118 14.3664 29.1074L14.3522 29.1072C14.3522 29.1072 14.3522 29.1072 14.3522 29.1072C13.2064 29.0896 12.2519 29.0466 11.6027 28.3973C10.9534 27.7481 10.9104 26.7936 10.8928 25.6478C10.8928 25.6478 10.8928 25.6478 10.8928 25.6478L10.8926 25.6335C10.8882 25.3494 10.8835 25.0353 10.8595 24.7451C10.8359 24.4597 10.79 24.1385 10.6761 23.8636C10.5573 23.5749 10.3582 23.3034 10.1643 23.071C9.97137 22.8397 9.74841 22.6067 9.5461 22.3953L9.5297 22.3782L9.52911 22.3776C8.74817 21.5636 8.125 20.8708 8.125 20C8.125 19.1292 8.7484 18.4349 9.5288 17.6228L9.5297 17.6218L9.54073 17.6103C9.74471 17.3971 9.96979 17.1619 10.1645 16.9284C10.3581 16.6962 10.5567 16.4252 10.6756 16.1377C10.7899 15.8625 10.8359 15.5408 10.8595 15.2549C10.8835 14.9647 10.8882 14.6506 10.8926 14.3665L10.8928 14.3538C10.9164 13.2026 10.9537 12.2516 11.6027 11.6027C12.2519 10.9534 13.2064 10.9104 14.3522 10.8928C14.3522 10.8928 14.3522 10.8928 14.3522 10.8928L14.3668 10.8926C14.6509 10.8882 14.9654 10.8835 15.2557 10.8595C15.5411 10.8359 15.8633 10.7901 16.1381 10.6755C16.4261 10.5565 16.6971 10.3578 16.929 10.1643C17.1603 9.97136 17.3933 9.7484 17.6047 9.54609L17.6218 9.5297L17.6224 9.52911C18.4364 8.74817 19.1292 8.125 20 8.125C20.8708 8.125 21.5651 8.7484 22.3772 9.5288L22.3782 9.5297L22.3897 9.54071C22.6029 9.7447 22.8381 9.96978 23.0716 10.1645C23.3038 10.3581 23.5748 10.5567 23.8623 10.6756C24.1375 10.7899 24.4592 10.8359 24.7451 10.8595C25.0353 10.8835 25.3494 10.8882 25.6335 10.8926L25.6478 10.8928C25.6478 10.8928 25.6478 10.8928 25.6478 10.8928C26.7936 10.9104 27.7481 10.9534 28.3973 11.6027C29.0466 12.2519 29.0896 13.2064 29.1072 14.3522C29.1072 14.3522 29.1072 14.3522 29.1072 14.3522L29.1074 14.3664C29.1118 14.6506 29.1165 14.9647 29.1405 15.2549C29.1641 15.5403 29.21 15.8615 29.3239 16.1364C29.4427 16.4251 29.6418 16.6966 29.8357 16.929C30.0287 17.1603 30.2516 17.3933 30.4539 17.6047L30.4703 17.6218Z" stroke="white" stroke-width="1.25"/>
</g>
</g>
<defs>
<filter id="filter0_ddddd_2131_307" x="5.625" y="6.875" width="28.75" height="35" filterUnits="userSpaceOnUse" color-interpolation-filters="sRGB">
<feFlood flood-opacity="0" result="BackgroundImageFix"/>
<feColorMatrix in="SourceAlpha" type="matrix" values="0 0 0 0 0 0 0 0 0 0 0 0 0 0 0 0 0 0 127 0" result="hardAlpha"/>
<feOffset/>
<feGaussianBlur stdDeviation="0.3125"/>
<feColorMatrix type="matrix" values="0 0 0 0 0 0 0 0 0 0 0 0 0 0 0 0 0 0 0.29 0"/>
<feBlend mode="normal" in2="BackgroundImageFix" result="effect1_dropShadow_2131_307"/>
<feColorMatrix in="SourceAlpha" type="matrix" values="0 0 0 0 0 0 0 0 0 0 0 0 0 0 0 0 0 0 127 0" result="hardAlpha"/>
<feOffset dy="1.25"/>
<feGaussianBlur stdDeviation="0.625"/>
<feColorMatrix type="matrix" values="0 0 0 0 0 0 0 0 0 0 0 0 0 0 0 0 0 0 0.26 0"/>
<feBlend mode="normal" in2="effect1_dropShadow_2131_307" result="effect2_dropShadow_2131_307"/>
<feColorMatrix in="SourceAlpha" type="matrix" values="0 0 0 0 0 0 0 0 0 0 0 0 0 0 0 0 0 0 127 0" result="hardAlpha"/>
<feOffset dy="2.5"/>
<feGaussianBlur stdDeviation="0.9375"/>
<feColorMatrix type="matrix" values="0 0 0 0 0 0 0 0 0 0 0 0 0 0 0 0 0 0 0.15 0"/>
<feBlend mode="normal" in2="effect2_dropShadow_2131_307" result="effect3_dropShadow_2131_307"/>
<feColorMatrix in="SourceAlpha" type="matrix" values="0 0 0 0 0 0 0 0 0 0 0 0 0 0 0 0 0 0 127 0" result="hardAlpha"/>
<feOffset dy="5"/>
<feGaussianBlur stdDeviation="0.9375"/>
<feColorMatrix type="matrix" values="0 0 0 0 0 0 0 0 0 0 0 0 0 0 0 0 0 0 0.04 0"/>
<feBlend mode="normal" in2="effect3_dropShadow_2131_307" result="effect4_dropShadow_2131_307"/>
<feColorMatrix in="SourceAlpha" type="matrix" values="0 0 0 0 0 0 0 0 0 0 0 0 0 0 0 0 0 0 127 0" result="hardAlpha"/>
<feOffset dy="7.5"/>
<feGaussianBlur stdDeviation="0.9375"/>
<feColorMatrix type="matrix" values="0 0 0 0 0 0 0 0 0 0 0 0 0 0 0 0 0 0 0.01 0"/>
<feBlend mode="normal" in2="effect4_dropShadow_2131_307" result="effect5_dropShadow_2131_307"/>
<feBlend mode="normal" in="SourceGraphic" in2="effect5_dropShadow_2131_307" result="shape"/>
</filter>
<clipPath id="clip0_2131_307">
<rect width="40" height="40" fill="white"/>
</clipPath>
</defs>
</svg>
