<svg width="28" height="33" viewBox="0 0 28 33" fill="none" xmlns="http://www.w3.org/2000/svg">
<g filter="url(#filter0_ddddd_4122_267)">
<path d="M23.5985 7.30113H19.6523C19.6961 7.26401 19.7411 7.22801 19.7839 7.18864C20.1255 6.88511 20.4009 6.51435 20.5927 6.09955C20.7845 5.68475 20.8887 5.23483 20.8987 4.77793C20.9135 4.2781 20.8259 3.78052 20.6414 3.31574C20.457 2.85097 20.1794 2.4288 19.8259 2.07516C19.4724 1.72151 19.0503 1.44386 18.5856 1.25925C18.1208 1.07463 17.6233 0.986942 17.1234 1.00157C16.6664 1.01142 16.2162 1.11551 15.8012 1.30733C15.3862 1.49916 15.0153 1.77458 14.7116 2.11637C14.2914 2.60334 13.9498 3.15292 13.6992 3.74525C13.4485 3.15292 13.1069 2.60334 12.6868 2.11637C12.3831 1.77458 12.0122 1.49916 11.5971 1.30733C11.1821 1.11551 10.732 1.01142 10.2749 1.00157C9.77508 0.986942 9.27753 1.07463 8.81281 1.25925C8.34809 1.44386 7.926 1.72151 7.57247 2.07516C7.21893 2.4288 6.9414 2.85097 6.75692 3.31574C6.57245 3.78052 6.48491 4.2781 6.49969 4.77793C6.50968 5.23483 6.61385 5.68475 6.80567 6.09955C6.99749 6.51435 7.27283 6.88511 7.61448 7.18864C7.65723 7.22576 7.70223 7.26176 7.7461 7.30113H3.79987C3.32252 7.30113 2.86471 7.49076 2.52717 7.8283C2.18963 8.16584 2 8.62365 2 9.101V12.7008C2 13.1781 2.18963 13.6359 2.52717 13.9735C2.86471 14.311 3.32252 14.5006 3.79987 14.5006V21.7001C3.79987 22.1775 3.9895 22.6353 4.32705 22.9728C4.66459 23.3104 5.12239 23.5 5.59975 23.5H12.3493C12.4686 23.5 12.5831 23.4526 12.6675 23.3682C12.7518 23.2838 12.7992 23.1694 12.7992 23.05V12.7008H3.79987V9.101H12.7992V12.7008H14.5991V9.101H23.5985V12.7008H14.5991V23.05C14.5991 23.1694 14.6465 23.2838 14.7309 23.3682C14.8153 23.4526 14.9297 23.5 15.0491 23.5H21.7986C22.276 23.5 22.7338 23.3104 23.0713 22.9728C23.4089 22.6353 23.5985 22.1775 23.5985 21.7001V14.5006C24.0758 14.5006 24.5337 14.311 24.8712 13.9735C25.2087 13.6359 25.3984 13.1781 25.3984 12.7008V9.101C25.3984 8.62365 25.2087 8.16584 24.8712 7.8283C24.5337 7.49076 24.0758 7.30113 23.5985 7.30113ZM8.8069 5.83873C8.64955 5.69624 8.52335 5.52276 8.43624 5.32917C8.34912 5.13559 8.30297 4.92608 8.30068 4.71381C8.295 4.46509 8.339 4.21774 8.43013 3.98625C8.52125 3.75476 8.65766 3.54378 8.83136 3.36568C9.00507 3.18757 9.21257 3.04593 9.44171 2.94904C9.67085 2.85216 9.91702 2.80198 10.1658 2.80144H10.2209C10.4332 2.80373 10.6427 2.84988 10.8363 2.937C11.0299 3.02411 11.2034 3.15031 11.3458 3.30766C12.2897 4.37409 12.6226 6.14246 12.7396 7.23589C11.6417 7.12002 9.87445 6.78704 8.8069 5.83873ZM18.5937 5.83873C17.5262 6.78367 15.7544 7.11664 14.6565 7.23364C14.7904 6.05134 15.1616 4.32009 16.0615 3.30878C16.204 3.15143 16.3775 3.02524 16.5711 2.93812C16.7647 2.85101 16.9742 2.80486 17.1864 2.80257H17.2416C17.4904 2.80412 17.7363 2.85532 17.9651 2.95316C18.1939 3.05101 18.4008 3.19352 18.5738 3.37236C18.7467 3.5512 18.8823 3.76276 18.9724 3.99465C19.0626 4.22655 19.1055 4.4741 19.0988 4.72281C19.0951 4.93364 19.0482 5.14147 18.961 5.33343C18.8737 5.52538 18.7479 5.69737 18.5915 5.83873H18.5937Z" fill="#D658B3"/>
<path d="M7.67577 4.7244C7.6795 5.0215 7.74435 5.31467 7.86629 5.58565C7.98875 5.8578 8.16616 6.10169 8.38738 6.30201L8.38736 6.30203L8.39182 6.306C9.01989 6.86391 9.82402 7.21796 10.5803 7.44753C11.343 7.67902 12.1011 7.79697 12.674 7.85743L13.4434 7.93863L13.3611 7.16939C13.3001 6.59909 13.1819 5.8422 12.9509 5.08034C12.7219 4.32496 12.3692 3.52096 11.8139 2.89344L11.8139 2.89342L11.8091 2.88814C11.6088 2.66692 11.3649 2.48951 11.0928 2.36705C10.8206 2.24458 10.5261 2.1797 10.2277 2.17648V2.17644H10.2209L10.1658 2.17644L10.1645 2.17645C9.83251 2.17716 9.50405 2.24411 9.19831 2.37339C8.89257 2.50266 8.6157 2.69166 8.38393 2.9293C8.15216 3.16694 7.97015 3.44844 7.84856 3.75732C7.72743 4.06505 7.6687 4.39379 7.67577 4.7244ZM7.67577 4.7244C7.67575 4.72312 7.67573 4.72184 7.67572 4.72055L8.30067 4.71381L7.67585 4.7281C7.67582 4.72687 7.67579 4.72564 7.67577 4.7244ZM19.2486 6.82401L17.9461 7.92613H19.6523H23.5985C23.9101 7.92613 24.2089 8.04991 24.4293 8.27024C24.6496 8.49058 24.7734 8.78941 24.7734 9.101V12.7008C24.7734 13.0123 24.6496 13.3112 24.4293 13.5315C24.2089 13.7518 23.9101 13.8756 23.5985 13.8756H22.9735V14.5006V21.7001C22.9735 22.0117 22.8497 22.3106 22.6294 22.5309C22.409 22.7512 22.1102 22.875 21.7986 22.875H15.2241V13.3258H23.5985H24.2235V12.7008V9.101V8.47601H23.5985H14.5991H13.9741V9.101V12.0758H13.4242V9.101V8.47601H12.7992H3.79987H3.17487V9.101V12.7008V13.3258H3.79987H12.1742V22.875H5.59975C5.28815 22.875 4.98932 22.7512 4.76899 22.5309C4.54866 22.3106 4.42487 22.0117 4.42487 21.7001V14.5006V13.8756H3.79987C3.48828 13.8756 3.18944 13.7518 2.96911 13.5315C2.74878 13.3112 2.625 13.0123 2.625 12.7008V9.101C2.625 8.78941 2.74878 8.49058 2.96911 8.27024C3.18944 8.04991 3.48828 7.92613 3.79987 7.92613H7.7461H9.37828L8.16354 6.83598C8.13331 6.80885 8.07146 6.75662 8.04122 6.73108C8.03427 6.72521 8.02899 6.72075 8.02614 6.71833C7.75037 6.47248 7.52803 6.17258 7.37295 5.83722C7.21722 5.50046 7.13265 5.13519 7.12454 4.76426L7.12455 4.76426L7.12441 4.75946C7.11215 4.34476 7.18478 3.93193 7.33784 3.54632C7.4909 3.1607 7.72115 2.81044 8.01447 2.51703C8.30779 2.22362 8.65799 1.99326 9.04356 1.84009C9.42913 1.68692 9.84194 1.61417 10.2566 1.62632L10.2615 1.62643C10.6326 1.63442 10.998 1.71893 11.3349 1.87466C11.6705 2.02977 11.9706 2.25222 12.2166 2.52817C12.5929 2.96503 12.8989 3.45781 13.1236 3.98883L13.6992 5.34899L14.2748 3.98883C14.4995 3.45782 14.8055 2.96505 15.1818 2.5282C15.4277 2.25224 15.7278 2.02978 16.0634 1.87466C16.4004 1.71893 16.7658 1.63442 17.1369 1.62644L17.1417 1.6263C17.5564 1.61417 17.9692 1.68692 18.3548 1.84009C18.7404 1.99326 19.0906 2.22362 19.3839 2.51703C19.6772 2.81044 19.9075 3.1607 20.0605 3.54632C20.2136 3.93193 20.2862 4.34476 20.2739 4.75946L20.2738 4.76426C20.2705 4.91554 20.2545 5.06588 20.2261 5.21373H19.6612C19.6996 5.05793 19.7206 4.89795 19.7237 4.7367C19.7322 4.40587 19.6749 4.07664 19.5549 3.76817C19.4346 3.45876 19.2538 3.17647 19.023 2.93785C18.7922 2.69923 18.5161 2.50907 18.2109 2.37852C17.9057 2.24797 17.5774 2.17966 17.2455 2.17758V2.17757H17.2416H17.1864V2.17753L17.1797 2.17761C16.8813 2.18082 16.5868 2.24571 16.3146 2.36817C16.0425 2.49064 15.7986 2.66805 15.5982 2.88926L15.5982 2.88925L15.5946 2.8933C15.062 3.49179 14.7106 4.2711 14.4754 5.01983C14.2381 5.7756 14.1054 6.5454 14.0355 7.16332L13.9478 7.93769L14.7227 7.85512C15.2952 7.79411 16.0541 7.67592 16.8175 7.44486C17.5745 7.21577 18.3798 6.86279 19.008 6.30673L20.2226 5.23159C20.1811 5.44001 20.1151 5.64334 20.0254 5.83722C19.8697 6.17397 19.6461 6.47498 19.3688 6.7214L19.3687 6.72132L19.3605 6.72892C19.3414 6.74644 19.3262 6.75908 19.302 6.77924C19.288 6.79087 19.271 6.805 19.2486 6.82401ZM10.2749 1.00164L10.2749 1.00157L10.2749 1.00164Z" stroke="white" stroke-width="1.25"/>
</g>
<defs>
<filter id="filter0_ddddd_4122_267" x="0.125" y="0.375" width="27.1484" height="32.5" filterUnits="userSpaceOnUse" color-interpolation-filters="sRGB">
<feFlood flood-opacity="0" result="BackgroundImageFix"/>
<feColorMatrix in="SourceAlpha" type="matrix" values="0 0 0 0 0 0 0 0 0 0 0 0 0 0 0 0 0 0 127 0" result="hardAlpha"/>
<feOffset/>
<feGaussianBlur stdDeviation="0.3125"/>
<feColorMatrix type="matrix" values="0 0 0 0 0 0 0 0 0 0 0 0 0 0 0 0 0 0 0.29 0"/>
<feBlend mode="normal" in2="BackgroundImageFix" result="effect1_dropShadow_4122_267"/>
<feColorMatrix in="SourceAlpha" type="matrix" values="0 0 0 0 0 0 0 0 0 0 0 0 0 0 0 0 0 0 127 0" result="hardAlpha"/>
<feOffset dy="1.25"/>
<feGaussianBlur stdDeviation="0.625"/>
<feColorMatrix type="matrix" values="0 0 0 0 0 0 0 0 0 0 0 0 0 0 0 0 0 0 0.26 0"/>
<feBlend mode="normal" in2="effect1_dropShadow_4122_267" result="effect2_dropShadow_4122_267"/>
<feColorMatrix in="SourceAlpha" type="matrix" values="0 0 0 0 0 0 0 0 0 0 0 0 0 0 0 0 0 0 127 0" result="hardAlpha"/>
<feOffset dy="2.5"/>
<feGaussianBlur stdDeviation="0.9375"/>
<feColorMatrix type="matrix" values="0 0 0 0 0 0 0 0 0 0 0 0 0 0 0 0 0 0 0.15 0"/>
<feBlend mode="normal" in2="effect2_dropShadow_4122_267" result="effect3_dropShadow_4122_267"/>
<feColorMatrix in="SourceAlpha" type="matrix" values="0 0 0 0 0 0 0 0 0 0 0 0 0 0 0 0 0 0 127 0" result="hardAlpha"/>
<feOffset dy="5"/>
<feGaussianBlur stdDeviation="0.9375"/>
<feColorMatrix type="matrix" values="0 0 0 0 0 0 0 0 0 0 0 0 0 0 0 0 0 0 0.04 0"/>
<feBlend mode="normal" in2="effect3_dropShadow_4122_267" result="effect4_dropShadow_4122_267"/>
<feColorMatrix in="SourceAlpha" type="matrix" values="0 0 0 0 0 0 0 0 0 0 0 0 0 0 0 0 0 0 127 0" result="hardAlpha"/>
<feOffset dy="7.5"/>
<feGaussianBlur stdDeviation="0.9375"/>
<feColorMatrix type="matrix" values="0 0 0 0 0 0 0 0 0 0 0 0 0 0 0 0 0 0 0.01 0"/>
<feBlend mode="normal" in2="effect4_dropShadow_4122_267" result="effect5_dropShadow_4122_267"/>
<feBlend mode="normal" in="SourceGraphic" in2="effect5_dropShadow_4122_267" result="shape"/>
</filter>
</defs>
</svg>
